<?xml version="1.0" encoding="utf-8"?>
<!-- Generator: Adobe Illustrator 24.1.2, SVG Export Plug-In . SVG Version: 6.00 Build 0)  -->
<svg version="1.1" id="Layer_1" xmlns="http://www.w3.org/2000/svg" xmlns:xlink="http://www.w3.org/1999/xlink" x="0px" y="0px"
	 viewBox="0 0 3000 2000" style="enable-background:new 0 0 3000 2000;" xml:space="preserve">
<style type="text/css">
	.st0{fill:#D4DFFF;}
	.st1{fill:#1C056D;}
	.st2{clip-path:url(#XMLID_2_);fill:#1C056D;}
	.st3{fill:#1B3D9E;}
	.st4{fill:#6880E4;}
	.st5{opacity:0.46;clip-path:url(#XMLID_3_);fill:#6880E4;}
	.st6{fill:#FFFFFF;}
	.st7{opacity:0.54;fill:#1B3D9E;}
	.st8{fill:#FC476A;}
	.st9{clip-path:url(#XMLID_4_);fill:#1C056D;}
	.st10{clip-path:url(#XMLID_5_);fill:#D40221;}
	.st11{clip-path:url(#XMLID_5_);fill:#D4DFFF;}
	.st12{opacity:0.46;clip-path:url(#XMLID_6_);fill:#6880E4;}
	.st13{clip-path:url(#XMLID_6_);fill:#6880E4;}
	.st14{opacity:0.17;clip-path:url(#XMLID_6_);fill:#6880E4;}
	.st15{clip-path:url(#XMLID_7_);fill:#E57492;}
	.st16{fill:#E57492;}
	.st17{clip-path:url(#XMLID_8_);fill:#1C056D;}
	.st18{fill:#F6F9FF;}
	.st19{clip-path:url(#XMLID_9_);fill:#E57492;}
	.st20{fill:#D40221;}
	.st21{clip-path:url(#XMLID_10_);fill:#1C056D;}
	.st22{clip-path:url(#XMLID_11_);fill:#1C056D;}
	.st23{clip-path:url(#XMLID_12_);fill:#1C056D;}
</style>
<g>
	<g>
		<g>
			<path class="st0" d="M668.98,1165.44c-15.96,14.02-39.73,18.49-59.7,11.23c-19.97-7.26-35.31-25.95-38.54-46.95
				c-3.8-24.71,6.71-54.4-10.75-72.28c-8.77-8.99-22.72-12.07-30.16-22.19c-6.24-8.5-6.38-19.87-6.26-30.42
				c0.21-18.72,0.41-37.45,0.62-56.17c-8.33-10.39-25.14-9.77-35.09-18.62c-9.84-8.76-11.98-23.07-13.74-36.12
				c-5.21-38.57-12.51-76.86-21.85-114.64c29.2,8.58,58.11,17.89,85.79,30.54c15.45,7.06,31.6,15.68,39.35,30.8
				c7.8,15.21,5.3,33.34,5.07,50.43c-0.08,5.52,0.15,11.22,2.48,16.23c6.01,12.9,22.56,15.86,34.9,22.96
				c13.63,7.84,23.13,22.45,24.76,38.08c1.48,14.19-3.13,28.67-0.45,42.68c5.94,31.07,43.17,45.41,58.04,73.32
				C718.99,1113.49,693.83,1143.62,668.98,1165.44z"/>
			<path class="st1" d="M745.6,1443.05c-0.51,0-0.96-0.36-1.05-0.88c-5.86-33.92-26.33-125.61-61.89-229.89
				c-26.1-76.53-56.33-148.86-89.84-214.99c-41.88-82.64-89.03-155.77-140.15-217.35c-0.38-0.45-0.31-1.12,0.14-1.5
				c0.45-0.37,1.12-0.31,1.5,0.14c51.22,61.71,98.47,134.98,140.42,217.77c33.55,66.22,63.82,138.65,89.95,215.28
				c35.6,104.39,56.1,196.21,61.96,230.17c0.1,0.58-0.29,1.13-0.87,1.23C745.73,1443.05,745.66,1443.05,745.6,1443.05z"/>
		</g>
		<g>
			<path class="st0" d="M207.84,1077.86c10.04,8.07,14.29,21.1,19.39,32.92c5.1,11.83,12.88,24.18,25.4,27.21
				c13.57,3.29,27.83-5.68,41.46-2.63c11.04,2.47,18.86,12.17,24.69,21.86c5.83,9.69,10.9,20.34,19.91,27.18
				c13.98,10.62,33.4,9.24,50.79,6.84s36.33-5.06,51.5,3.78c18.46,10.76,25.34,35.25,43.66,46.23c7.8,4.67,17,6.44,26.06,7.11
				c27,2.01,54.61-5.25,77.13-20.27c-1.3-24.63-9.86-51.25-25.34-70.45s-38.73-32.54-63.35-33.85c-7.86-0.42-15.8,0.35-23.56-0.95
				c-32.61-5.43-49.56-43.29-79.78-56.7c-12.84-5.7-27.77-6.53-41.16-2.3c-13.11,4.14-24.81,12.92-38.48,14.37
				c-13.36,1.42-26.25-4.37-39.18-8.01C252.18,1063.25,232.08,1069.13,207.84,1077.86z"/>
			<path class="st1" d="M736.46,1434.35c-0.47,0-0.91-0.32-1.03-0.8c-15.52-60.69-50.27-118.84-100.47-168.16
				c-43.14-42.38-98.54-79.08-164.67-109.07c-71.15-32.27-153.23-56.74-258.31-77c-0.58-0.11-0.95-0.67-0.84-1.25
				c0.11-0.58,0.67-0.95,1.24-0.84c105.25,20.3,187.48,44.81,258.79,77.15c66.35,30.09,121.96,66.93,165.28,109.49
				c50.48,49.6,85.42,108.09,101.04,169.15c0.15,0.57-0.2,1.15-0.77,1.29C736.64,1434.34,736.55,1434.35,736.46,1434.35z"/>
		</g>
		<path class="st0" d="M778.27,1076.78c-15.5,2.99-32.25-1.21-44.5-11.17c-12.25-9.96-19.79-25.49-20.03-41.28
			c-0.18-11.99,3.6-23.67,7.72-34.94c1.41-3.85,2.89-7.88,2.38-11.95c-0.41-3.23-2.04-6.17-3.81-8.9
			c-6.68-10.26-15.98-19.18-19.5-30.91c-6.25-20.82,7.65-43.23,3.3-64.52c-1.52-7.42-5.18-14.2-7.79-21.31
			c-9.19-25.04-4.38-54.72,12.25-75.57c23.41,9.39,38.68,34.35,38.91,59.57c0.12,12.57-3.34,25.89,2.01,37.27
			c3.2,6.8,9.11,11.85,14.66,16.93c9.71,8.89,19.08,19.08,22.51,31.79c5.39,19.97-4.93,42.01,1.76,61.58
			c6.64,19.42,28.28,30.98,34.15,50.64c1.57,5.27,1.9,10.85,1.46,16.34c-0.68,8.43-3.46,17.13-9.81,22.72
			C804.06,1081.78,791.2,1074.29,778.27,1076.78z"/>
		<path class="st1" d="M787.07,1439.58c-0.55,0-1.01-0.42-1.06-0.97c-4.59-53.96-3.33-109.18-2.11-162.59
			c1.68-73.88,3.43-150.27-10.39-223.9c-7.14-38.08-18.57-75.97-29.61-112.61c-15.37-50.97-31.26-103.68-35.8-157.56
			c-0.05-0.58,0.38-1.1,0.97-1.15c0.58-0.05,1.1,0.38,1.15,0.97c4.52,53.66,20.38,106.26,35.72,157.13
			c11.06,36.69,22.5,74.64,29.67,112.83c13.86,73.85,12.11,150.35,10.42,224.34c-1.22,53.35-2.47,108.52,2.11,162.36
			c0.05,0.58-0.38,1.1-0.97,1.15C787.13,1439.58,787.1,1439.58,787.07,1439.58z"/>
	</g>
	<g>
		<defs>
			<path id="XMLID_256_" d="M670.12,1779.34c0,0-98.22-331.89-82.4-340.67s403.54-9.13,403.54-9.13s-44.46,349.06-56.81,349.8
				C922.1,1780.08,702.81,1780.85,670.12,1779.34z"/>
		</defs>
		<use xlink:href="#XMLID_256_"  style="overflow:visible;fill:#1B3D9E;"/>
		<clipPath id="XMLID_2_">
			<use xlink:href="#XMLID_256_"  style="overflow:visible;"/>
		</clipPath>
		<path class="st2" d="M765.84,1403.86c0,0-113.43,144.91-106.98,148.78c6.44,3.87,325.08,69.6,324.95,65.74
			c-0.13-3.87,32.4-188.84,32.4-188.84L765.84,1403.86z"/>
	</g>
</g>
<g>
	<g>
		<g>
			<rect x="1420.46" y="1494.29" class="st3" width="277.43" height="235.77"/>
			<path class="st1" d="M1789.36,1780.21H1335.7c-11.52,0-20.85-9.34-20.85-20.85v-8.44c0-11.52,9.34-20.85,20.85-20.85h453.67
				c11.52,0,20.85,9.34,20.85,20.85v8.44C1810.21,1770.87,1800.88,1780.21,1789.36,1780.21z"/>
		</g>
		<path class="st4" d="M862.12,672.05c0.59-1.17,1.78-1.91,3.09-1.91c55.95-0.38,1341.22-8.93,1398.16,0.01
			c22.45,3.53,16.87,858.08,0,890.73c-12.4,24.01-1384.11,2.9-1400.05,0C843.68,1557.31,833.95,728.19,862.12,672.05z"/>
		<g>
			<defs>
				<path id="XMLID_254_" d="M895.95,711.36c0,0-4.4,729.65,13.19,731.65c17.59,1.99,1299.51,9.97,1310.5,0s15.39-737.63,0-737.63
					C2204.25,705.38,895.95,711.36,895.95,711.36z"/>
			</defs>
			<use xlink:href="#XMLID_254_"  style="overflow:visible;fill:#D4DFFF;"/>
			<clipPath id="XMLID_3_">
				<use xlink:href="#XMLID_254_"  style="overflow:visible;"/>
			</clipPath>
			<polygon class="st5" points="1737.88,688.83 1239.68,1462.3 871.43,1462.3 895.95,711.36 			"/>
			<polygon class="st5" points="1353.42,1468.62 1832.25,684.68 2042.37,684.68 1581.05,1464.51 			"/>
			<polygon class="st5" points="2131.23,687.59 1667.64,1469.29 1954.81,1465.65 2263.21,898.03 2257,692.52 			"/>
		</g>
	</g>
	
		<ellipse transform="matrix(0.9239 -0.3827 0.3827 0.9239 -461.629 712.1032)" class="st3" cx="1559.18" cy="1516.44" rx="33.72" ry="33.72"/>
	<g>
		<path class="st6" d="M1241.17,1026.61c1.65-7.72,4.89-13.58,9.72-17.58c4.82-3.99,10.13-6.06,15.92-6.2
			c5.79-0.14,11.3,1.59,16.54,5.17c5.23,3.59,8.96,9.1,11.17,16.54c0.27,17.92,0.41,35.64,0.41,53.14c0,17.51,0.27,35.09,0.83,52.73
			c12.13,0,23.91-0.14,35.36-0.41c11.44-0.27,22.4-0.41,32.88-0.41c7.44,2.21,12.96,5.72,16.54,10.55
			c3.58,4.83,5.31,9.86,5.17,15.09c-0.14,5.24-2.21,10.07-6.2,14.47c-4,4.41-9.86,7.44-17.58,9.1c-10.75,0-21.5,0.07-32.26,0.21
			c-10.75,0.14-21.5,0.07-32.26-0.21c0.55,13.79,0.89,28.74,1.03,44.87c0.14,16.13,0.34,31.09,0.62,44.87
			c-0.56,9.1-3.52,15.86-8.89,20.26c-5.38,4.41-11.37,6.62-17.99,6.62c-6.62,0-12.89-2.27-18.82-6.82
			c-5.93-4.55-9.45-11.23-10.55-20.06c-0.28-14.06-0.07-28.88,0.62-44.45c0.68-15.57,0.76-30.39,0.21-44.46
			c-11.86-0.27-24.61-0.89-38.25-1.86c-13.65-0.96-26.88-2.96-39.7-6c-12.82-3.03-24.61-7.3-35.36-12.82
			c-10.75-5.51-19.44-12.82-26.05-21.92c-6.07-8.54-9.51-17.78-10.34-27.71s0.14-20.12,2.89-30.6c2.75-10.47,6.89-21.09,12.41-31.84
			c5.51-10.75,11.51-21.09,17.99-31.02c6.47-9.92,12.96-19.23,19.44-27.91c6.47-8.68,12.2-16.33,17.16-22.95
			c11.02-14.89,22.33-29.36,33.91-43.42c11.58-14.06,23.16-28.26,34.74-42.59c6.06-4.96,12.33-7.51,18.82-7.65
			c6.47-0.14,12.06,1.45,16.75,4.76c4.68,3.31,7.92,8,9.72,14.06c1.79,6.07,1.3,12.82-1.45,20.26
			c-9.38,11.58-20.41,24.75-33.08,39.49c-12.68,14.75-25.16,30.19-37.43,46.32c-12.27,16.13-23.44,32.53-33.5,49.21
			c-10.07,16.68-17.16,32.88-21.3,48.59c-1.66,5.52-1.03,10.27,1.86,14.27c2.89,4,7.17,7.31,12.82,9.92
			c5.65,2.62,12.2,4.76,19.64,6.41c7.44,1.65,14.82,2.89,22.12,3.72c7.3,0.83,14.06,1.45,20.26,1.86c6.2,0.41,10.96,0.76,14.27,1.03
			c-0.56-17.37-0.83-34.8-0.83-52.31C1241.17,1061.42,1241.17,1043.98,1241.17,1026.61z"/>
		<path class="st6" d="M1441.73,1217.25c-3.59-11.85-7.17-26.67-10.75-44.46c-3.59-17.78-6.27-37.01-8.06-57.69
			c-1.8-20.68-2.42-41.9-1.86-63.68c0.55-21.78,2.96-42.59,7.24-62.44c4.27-19.85,10.82-37.9,19.64-54.17
			c8.82-16.26,20.54-29.08,35.15-38.46c18.2-11.58,36.94-19.85,56.24-24.81c19.29-4.96,38.18-6.89,56.65-5.79
			c18.47,1.1,36.04,5.03,52.73,11.79c16.68,6.76,31.29,15.92,43.83,27.5c12.54,11.58,22.6,25.5,30.19,41.77
			c7.58,16.27,11.64,34.47,12.2,54.59c0.27,19.02,0.96,39.36,2.07,61c1.1,21.65,1.17,43.36,0.21,65.13
			c-0.97,21.78-3.79,42.8-8.48,63.06c-4.69,20.26-12.41,38.53-23.16,54.79c-9.1,13.79-21.3,24.95-36.6,33.5
			c-15.3,8.55-31.84,14.55-49.62,17.99c-17.78,3.44-36.05,4.34-54.79,2.69c-18.75-1.65-36.33-5.85-52.73-12.61
			c-16.41-6.75-30.88-15.92-43.42-27.5C1455.86,1247.86,1446.97,1233.8,1441.73,1217.25z M1510.79,943.91
			c-7.17,5.52-13.58,13.58-19.23,24.19c-5.65,10.62-8.89,21.85-9.72,33.7c-1.11,16.54-2.21,33.29-3.31,50.24
			c-1.1,16.95-1.52,33.7-1.24,50.24c0.27,16.54,1.65,32.81,4.14,48.8c2.48,15.99,7.03,31.29,13.65,45.9
			c4.13,9.65,10.27,17.78,18.4,24.4c8.13,6.62,17.23,11.72,27.29,15.3c10.06,3.59,20.74,5.58,32.05,6
			c11.3,0.41,22.33-0.68,33.08-3.31c10.75-2.62,20.88-6.82,30.4-12.61c9.51-5.79,17.57-13.23,24.19-22.33
			c4.68-5.79,8.48-13.85,11.37-24.19c2.89-10.34,5.03-21.85,6.41-34.53c1.38-12.68,2.2-25.77,2.48-39.29
			c0.27-13.5,0.27-26.32,0-38.46c-0.28-12.13-0.56-22.95-0.83-32.46c-0.28-9.51-0.41-16.47-0.41-20.88
			c0.27-13.23-1.86-25.57-6.41-37.01c-4.55-11.44-10.82-21.43-18.82-29.98c-8-8.54-17.44-15.44-28.33-20.68
			c-10.89-5.23-22.61-8.27-35.15-9.1c-12.55-0.83-25.64,0.83-39.29,4.96C1537.88,926.95,1524.3,933.98,1510.79,943.91z"/>
		<path class="st6" d="M1930.12,1026.61c1.65-7.72,4.89-13.58,9.72-17.58c4.82-3.99,10.13-6.06,15.92-6.2
			c5.79-0.14,11.3,1.59,16.54,5.17c5.23,3.59,8.96,9.1,11.17,16.54c0.27,17.92,0.41,35.64,0.41,53.14c0,17.51,0.27,35.09,0.83,52.73
			c12.13,0,23.91-0.14,35.36-0.41c11.44-0.27,22.4-0.41,32.88-0.41c7.44,2.21,12.96,5.72,16.54,10.55
			c3.58,4.83,5.31,9.86,5.17,15.09c-0.14,5.24-2.21,10.07-6.2,14.47c-4,4.41-9.86,7.44-17.58,9.1c-10.75,0-21.5,0.07-32.26,0.21
			c-10.75,0.14-21.5,0.07-32.26-0.21c0.55,13.79,0.89,28.74,1.03,44.87c0.14,16.13,0.34,31.09,0.62,44.87
			c-0.56,9.1-3.52,15.86-8.89,20.26c-5.38,4.41-11.37,6.62-17.99,6.62c-6.62,0-12.89-2.27-18.82-6.82
			c-5.93-4.55-9.45-11.23-10.55-20.06c-0.28-14.06-0.07-28.88,0.62-44.45c0.68-15.57,0.76-30.39,0.21-44.46
			c-11.86-0.27-24.61-0.89-38.25-1.86c-13.65-0.96-26.88-2.96-39.7-6c-12.82-3.03-24.61-7.3-35.36-12.82
			c-10.75-5.51-19.44-12.82-26.05-21.92c-6.07-8.54-9.51-17.78-10.34-27.71c-0.83-9.92,0.14-20.12,2.89-30.6
			c2.75-10.47,6.89-21.09,12.41-31.84c5.51-10.75,11.51-21.09,17.99-31.02c6.47-9.92,12.96-19.23,19.44-27.91
			c6.47-8.68,12.2-16.33,17.16-22.95c11.02-14.89,22.33-29.36,33.91-43.42c11.58-14.06,23.16-28.26,34.74-42.59
			c6.06-4.96,12.33-7.51,18.82-7.65c6.47-0.14,12.06,1.45,16.75,4.76c4.68,3.31,7.92,8,9.72,14.06c1.79,6.07,1.3,12.82-1.45,20.26
			c-9.38,11.58-20.41,24.75-33.08,39.49c-12.68,14.75-25.16,30.19-37.43,46.32c-12.27,16.13-23.44,32.53-33.5,49.21
			c-10.07,16.68-17.16,32.88-21.3,48.59c-1.65,5.52-1.03,10.27,1.86,14.27c2.89,4,7.17,7.31,12.82,9.92
			c5.65,2.62,12.2,4.76,19.64,6.41c7.44,1.65,14.82,2.89,22.12,3.72c7.3,0.83,14.06,1.45,20.26,1.86c6.2,0.41,10.96,0.76,14.27,1.03
			c-0.56-17.37-0.83-34.8-0.83-52.31C1930.12,1061.42,1930.12,1043.98,1930.12,1026.61z"/>
	</g>
	<g>
		<path class="st7" d="M1160.5,1566.56l-132.59-372.76l33.67,5.41c1.9,0.31,3.49,1.62,4.15,3.43l132.69,364.28
			c0.03,0.08-0.03,0.17-0.12,0.17L1160.5,1566.56z"/>
		<g>
			<path class="st8" d="M734.25,1582.39c5.6-0.99,280.68-391.45,293.66-388.59c12.98,2.86,164.14,461.73,158.52,460.84
				C1180.82,1653.74,720.34,1584.85,734.25,1582.39z"/>
			<g>
				<path class="st6" d="M985.14,1519.24c-2.14,1.92-4.3,3.16-6.51,3.72c-2.2,0.57-4.31,0.55-6.33-0.05
					c-2.02-0.6-3.84-1.74-5.48-3.41c-1.64-1.67-2.88-3.84-3.72-6.51c1.34-16.4,2.37-33.07,3.08-50c0.72-16.93,1.63-33.75,2.74-50.48
					c1.1-16.72,2.7-33.19,4.79-49.41c2.08-16.22,5.16-31.82,9.23-46.81c0.33-1.22,1.45-2.3,3.37-3.27c1.91-0.96,4.24-1.65,6.98-2.06
					c2.74-0.41,5.72-0.57,8.95-0.48c3.22,0.09,6.33,0.48,9.32,1.16c2.99,0.69,5.64,1.71,7.96,3.06c2.32,1.36,4.01,3.1,5.08,5.24
					c1.73,2.39,2.77,6.5,3.11,12.33c0.34,5.83,0.21,12.85-0.39,21.06c-0.6,8.22-1.7,17.34-3.29,27.36
					c-1.59,10.03-3.48,20.33-5.65,30.9c-2.17,10.57-4.56,21.18-7.17,31.82c-2.61,10.64-5.37,20.7-8.28,30.16
					c-2.91,9.47-5.83,18.09-8.76,25.86c-2.92,7.77-5.75,14.05-8.48,18.83C985.7,1518.41,985.51,1518.74,985.14,1519.24z
					 M956.67,1581.47c-3.01-2.31-5.44-4.98-7.28-8.02c-1.84-3.04-2.9-6.13-3.17-9.27c-0.28-3.14,0.39-6.21,1.99-9.19
					c1.6-2.99,4.27-5.59,8-7.81c5.14-3.13,10.3-4.32,15.46-3.57c5.16,0.75,9.14,3.88,11.92,9.39c2.62,4.78,3.88,9.94,3.77,15.49
					c-0.11,5.55-2.52,10.34-7.25,14.38c-3.45,3.11-7.35,4.39-11.7,3.85C964.06,1586.17,960.14,1584.42,956.67,1581.47z"/>
			</g>
		</g>
	</g>
</g>
<g>
	<g>
		<defs>
			<path id="XMLID_258_" d="M2508.61,1778.72h-332.87c-6.67,0-12.08-5.41-12.08-12.08v-388.83c0-6.67,5.41-12.08,12.08-12.08h332.87
				c6.67,0,12.08,5.41,12.08,12.08v388.83C2520.69,1773.31,2515.28,1778.72,2508.61,1778.72z"/>
		</defs>
		<use xlink:href="#XMLID_258_"  style="overflow:visible;fill:#1B3D9E;"/>
		<clipPath id="XMLID_4_">
			<use xlink:href="#XMLID_258_"  style="overflow:visible;"/>
		</clipPath>
		<path class="st9" d="M2530.74,1424.21c0,0-139.84,196.9-392.92,251.4v120.52h401.74
			C2539.55,1796.13,2550.04,1431.26,2530.74,1424.21z"/>
	</g>
	<g>
		<defs>
			<path id="XMLID_255_" d="M2258.03,1365.73c0,0-4.74-339.97,1.58-343.92c6.32-3.95,54.49-7.9,58.43,1.58
				c3.95,9.48,0,342.34,0,342.34H2258.03z"/>
		</defs>
		<use xlink:href="#XMLID_255_"  style="overflow:visible;fill:#FC476A;"/>
		<clipPath id="XMLID_5_">
			<use xlink:href="#XMLID_255_"  style="overflow:visible;"/>
		</clipPath>
		<polygon class="st10" points="2299.34,1070.31 2299.34,1372.44 2276.78,1372.44 2276.78,1070.92 		"/>
		<path class="st11" d="M2246.96,1083.37c0,0,70.09-5.32,79.86-0.43c0,0-0.49-69.86-4.4-71.32c-3.91-1.47-70.83-1.84-72.3,5.92
			C2248.65,1025.29,2246.96,1083.37,2246.96,1083.37z"/>
	</g>
	<g>
		<defs>
			<path id="XMLID_257_" d="M2492.85,1365.73h-139.48V875.06c0-2.06,1.67-3.73,3.73-3.73h132.01c2.06,0,3.73,1.67,3.73,3.73V1365.73
				z"/>
		</defs>
		<use xlink:href="#XMLID_257_"  style="overflow:visible;fill:#D4DFFF;"/>
		<clipPath id="XMLID_6_">
			<use xlink:href="#XMLID_257_"  style="overflow:visible;"/>
		</clipPath>
		<rect x="2342.17" y="853.25" class="st12" width="47.85" height="530.48"/>
		<rect x="2353.37" y="909.25" class="st13" width="17.57" height="6.12"/>
		<rect x="2353.37" y="937.44" class="st13" width="17.57" height="6.12"/>
		<rect x="2353.37" y="965.62" class="st13" width="17.57" height="6.12"/>
		<rect x="2353.37" y="993.8" class="st13" width="17.57" height="6.12"/>
		<rect x="2353.37" y="1021.99" class="st13" width="17.57" height="6.12"/>
		<rect x="2353.37" y="1050.17" class="st13" width="17.57" height="6.12"/>
		<rect x="2353.37" y="1078.36" class="st13" width="17.57" height="6.12"/>
		<rect x="2353.37" y="1106.54" class="st13" width="17.57" height="6.12"/>
		<rect x="2353.37" y="1134.72" class="st13" width="17.57" height="6.12"/>
		<rect x="2353.37" y="1162.91" class="st13" width="17.57" height="6.12"/>
		<rect x="2353.37" y="1191.09" class="st13" width="17.57" height="6.12"/>
		<rect x="2353.37" y="1219.27" class="st13" width="17.57" height="6.12"/>
		<rect x="2353.37" y="1247.46" class="st13" width="17.57" height="6.12"/>
		<rect x="2353.37" y="1275.64" class="st13" width="17.57" height="6.12"/>
		<rect x="2353.37" y="1303.83" class="st13" width="17.57" height="6.12"/>
		<rect x="2353.37" y="1332.01" class="st13" width="17.57" height="6.12"/>
		<path class="st14" d="M2462.68,852.67c-38.7,33.16-52.28,92.46-31.85,139.15c9.72,22.22,26.34,42.04,29.46,66.09
			c3.02,23.33-7.24,46.03-15.36,68.12c-8,21.76-14.16,44.76-12.53,67.89c2.66,37.83,25.86,73.22,22.07,110.95
			c-3.64,36.24-31.83,67.79-30.2,104.18c0.46,0-0.49,1.6-0.02,1.6h90.62l-0.04-560.3l11.15,0.11L2462.68,852.67z"/>
	</g>
</g>
<path class="st1" d="M2763.83,1784.46H474.32c-2.35,0-4.25-1.9-4.25-4.25s1.9-4.25,4.25-4.25h2289.51c2.35,0,4.25,1.9,4.25,4.25
	S2766.17,1784.46,2763.83,1784.46z"/>
<g>
	<g>
		<g>
			<defs>
				<path id="XMLID_260_" d="M1172.41,613.04l-52.98,6.85c-29.17-13.67-57.41-22.52-83.74-19.76
					c-26.45,2.76-41.65,30.46-35.12,49.11c5.74,16.4,53.33,33.22,73.86,33.62c20.53,0.39,51.72-4.34,63.17-14.5
					c0.02-0.01,0.03-0.03,0.04-0.05h34.76V613.04z"/>
			</defs>
			<use xlink:href="#XMLID_260_"  style="overflow:visible;fill:#FE8E9C;"/>
			<clipPath id="XMLID_7_">
				<use xlink:href="#XMLID_260_"  style="overflow:visible;"/>
			</clipPath>
			<path class="st15" d="M1056,685.37c0,0,10.19-19.92,9.73-35.22c-0.46-15.29-21.48-39.12-21.48-39.12l-17.44,0.89
				c0,0,5.69,55.84,0.64,65.68c-5.05,9.85,0,0,0,0L1056,685.37z"/>
		</g>
		<path class="st16" d="M1137.61,668.35c0,0,10.49-16.11-13.89-32.37c0,0,21.75,3.52,29.22,18.02c7.47,14.5,5.93,14.72,5.93,14.72
			L1137.61,668.35z"/>
	</g>
	<g>
		<defs>
			<path id="XMLID_261_" d="M1119.44,619.89c0,0-16.98,1.51-20.26,1.59c-11.89,0.29-23.81,0.94-23.81,0.94s-7.41-24.05-18.3-19.12
				c-16,7.24,2.29,18.47,2.29,18.47s-28.44-4.74-31.21-4.9c-2.78-0.16,21.29,50.59-4.39,66.01c-25.67,15.42-54.27,7.29-57.84-32.68
				s37.37-78.31,75.06-77.01C1078.66,574.48,1119.44,619.89,1119.44,619.89z"/>
		</defs>
		<use xlink:href="#XMLID_261_"  style="overflow:visible;fill:#1B3D9E;"/>
		<clipPath id="XMLID_8_">
			<use xlink:href="#XMLID_261_"  style="overflow:visible;"/>
		</clipPath>
		<path class="st17" d="M1001.92,690.18c0,0,19.54-16.37,18.58-34.46c-0.97-18.09-6.8-46.42-3.93-48.3
			c2.87-1.88,32.97,10.13,32.97,10.13s-5.54-8.13,4.11-12.29c9.66-4.16,0,0,0,0s15.3,16.75,14.22,18.5
			c-1.08,1.76-36.23-1.76-36.23-1.76s13.79,33.86,3.92,53.87C1025.69,695.88,1001.92,690.18,1001.92,690.18"/>
	</g>
	<path class="st18" d="M1118.32,668.72c0,0-8.09-2.32-8.09-16.37c0-14.04,0-1.4,0-1.4S1118.45,665.89,1118.32,668.72z"/>
	<path class="st16" d="M1052.55,651.59c0,0,32.27,17.55,35.29,15.68c3.03-1.86-2.45-21.55-2.45-21.55s3.49-0.23,4.31,2.91
		c0.82,3.14,5.36,21.66,0,22.01C1084.35,671,1057.79,657.92,1052.55,651.59z"/>
	<g>
		<defs>
			<path id="XMLID_262_" d="M1239.14,984.94c0,0-7.91,10.64-10.53,15.91c-2.61,5.27-3.46,31.6-2.91,31.51
				c0.55-0.09,6.4-0.4,7.61-3.88l6.47-22.23c0,0,0.44,23.84-0.35,25.53c-0.79,1.69-14.52,29.05-13.31,29.92
				c1.21,0.87,6.41,4.04,10.46-2.78c4.05-6.82,13.63-24.47,14.81-27.29c1.18-2.82-18.76,37.2-17.96,37.52
				c0.8,0.32,5.91,2.97,7.93,0.36s19.87-31.02,20.46-33.3c0.59-2.29-11.12,27.22-10.51,27.21c0.61-0.01,2.95,3.02,6.14-1.01
				c3.19-4.03,13.92-25.66,14.43-26.8c0.51-1.14,0.35-14.92,0.35-14.92s2.67,16.19,2.05,18.3c-0.63,2.11-5.54,14.37-3.26,14.8
				c1.73,0.33,4.74-3,7.11-7.34c2.37-4.34,5.38-10.85,5.15-17.03c-0.23-6.18-11.61-40.77-11.61-40.77L1239.14,984.94z"/>
		</defs>
		<use xlink:href="#XMLID_262_"  style="overflow:visible;fill:#FE8E9C;"/>
		<clipPath id="XMLID_9_">
			<use xlink:href="#XMLID_262_"  style="overflow:visible;"/>
		</clipPath>
		<path class="st19" d="M1222.65,1010.09c0.5,1.8,24.75-11.65,57.79-6.49c0,0-4.45-20.06-8.05-21.87c-3.6-1.8-31.96-1.8-36.28,0.24
			S1220.37,1001.8,1222.65,1010.09z"/>
	</g>
	<g>
		<path class="st8" d="M1535.62,590.09c0-2.12-1.52-3.94-3.61-4.31l-171.89-30.91c-144.19-12.33-187.71,51.49-187.71,51.49v61.97
			l16.87-0.07c12.49,36.47,48.02,140.99,51.64,159.98c4.4,23.08-23.97,162.06-21.03,163.9c2.94,1.84,66.62,9.68,72.5,8.7
			c5.88-0.98,35.27-154.04,33.31-172.54c-1.5-14.2-5.9-111.6-16.72-160.52l226.64-0.9V590.09z"/>
		<path class="st20" d="M1308.98,667.78c0,0-4.29-22.73-23.36-38.5c0,0,101.89,20.38,131.47,22.35s118.53-5.85,118.53-5.85v21.1
			L1308.98,667.78z"/>
	</g>
	<path class="st16" d="M2046.74,728.96c0,0,35.83-8.51,36.72-6.87c0.9,1.64,5.97,18.06,4.03,24.03
		c-1.94,5.97-37.17,18.81-37.17,18.81L2046.74,728.96z"/>
	<g>
		<g>
			<defs>
				<path id="XMLID_264_" d="M2074.66,620.02c0,0-339.36-27.84-409.84-42.64c-70.48-14.79-129.19,17.36-129.19,17.36v72.14
					c0,0,182.37,155.37,264.14,157.42c81.78,2.04,252.82-43.61,254.19-51.11s0-51.79-6.81-54.52
					c-6.81-2.73-233.06,23.17-237.15,18.4c-2.66-3.1-40.96-41.56-74.58-70.19h339.25V620.02z"/>
			</defs>
			<use xlink:href="#XMLID_264_"  style="overflow:visible;fill:#1B3D9E;"/>
			<clipPath id="XMLID_10_">
				<use xlink:href="#XMLID_264_"  style="overflow:visible;"/>
			</clipPath>
			<path class="st21" d="M1816.44,783.36c-1.2,0-2.16-0.04-2.92-0.13c-0.19-0.02-0.38-0.05-0.58-0.08c-0.87-0.15-1.45-0.98-1.3-1.84
				c0.15-0.87,0.98-1.45,1.84-1.3c0.13,0.02,0.26,0.04,0.38,0.06c1.01,0.11,2.59,0.13,4.6,0.07c0.89-0.03,1.62,0.66,1.64,1.54
				c0.03,0.88-0.66,1.62-1.54,1.64C1817.79,783.34,1817.08,783.36,1816.44,783.36z M1823.84,783.03c-0.83,0-1.53-0.64-1.59-1.48
				c-0.06-0.88,0.6-1.64,1.48-1.7c1.62-0.11,3.38-0.26,5.29-0.43c0.87-0.08,1.65,0.57,1.73,1.45c0.08,0.88-0.57,1.65-1.45,1.73
				c-1.93,0.17-3.71,0.32-5.35,0.43C1823.92,783.03,1823.88,783.03,1823.84,783.03z M1834.47,782.1c-0.81,0-1.5-0.61-1.58-1.43
				c-0.09-0.88,0.55-1.66,1.43-1.75c1.69-0.17,3.45-0.36,5.29-0.56c0.87-0.09,1.66,0.54,1.76,1.41c0.09,0.88-0.54,1.66-1.41,1.76
				c-1.85,0.2-3.62,0.39-5.31,0.56C1834.58,782.1,1834.52,782.1,1834.47,782.1z M1808.16,781.5c-0.21,0-0.42-0.04-0.62-0.13
				c-1.44-0.61-3.1-1.38-4.93-2.3c-0.79-0.39-1.11-1.35-0.71-2.14c0.39-0.79,1.35-1.1,2.14-0.71c1.77,0.89,3.37,1.63,4.75,2.22
				c0.81,0.34,1.19,1.28,0.85,2.09C1809.37,781.13,1808.78,781.5,1808.16,781.5z M1845.07,780.95c-0.8,0-1.49-0.6-1.58-1.41
				c-0.1-0.87,0.53-1.67,1.4-1.77c1.71-0.2,3.47-0.4,5.28-0.62c0.87-0.11,1.67,0.52,1.77,1.39c0.1,0.87-0.52,1.67-1.39,1.77
				c-1.81,0.22-3.58,0.43-5.3,0.62C1845.19,780.94,1845.13,780.95,1845.07,780.95z M1855.64,779.68c-0.79,0-1.48-0.59-1.58-1.4
				c-0.11-0.87,0.51-1.67,1.39-1.78c1.72-0.21,3.48-0.43,5.28-0.66c0.87-0.11,1.67,0.51,1.78,1.38c0.11,0.87-0.51,1.67-1.38,1.78
				c-1.8,0.23-3.56,0.45-5.29,0.66C1855.77,779.68,1855.71,779.68,1855.64,779.68z M1866.21,778.34c-0.79,0-1.47-0.59-1.58-1.39
				c-0.11-0.87,0.5-1.67,1.38-1.79c1.73-0.23,3.49-0.46,5.28-0.69c0.87-0.11,1.67,0.5,1.79,1.37c0.12,0.87-0.5,1.67-1.37,1.79
				c-1.79,0.24-3.55,0.47-5.28,0.69C1866.34,778.33,1866.27,778.34,1866.21,778.34z M1876.76,776.94c-0.79,0-1.47-0.58-1.58-1.38
				c-0.12-0.87,0.5-1.67,1.37-1.79l5.27-0.71c0.87-0.13,1.68,0.49,1.79,1.36c0.12,0.87-0.49,1.68-1.37,1.79l-5.28,0.71
				C1876.9,776.94,1876.83,776.94,1876.76,776.94z M1798.59,776.76c-0.26,0-0.52-0.06-0.76-0.19c-1.48-0.81-3.05-1.68-4.69-2.61
				c-0.76-0.44-1.03-1.41-0.6-2.17c0.43-0.76,1.41-1.03,2.17-0.6c1.62,0.92,3.16,1.78,4.63,2.58c0.77,0.42,1.06,1.39,0.64,2.16
				C1799.71,776.46,1799.16,776.76,1798.59,776.76z M1887.31,775.5c-0.78,0-1.47-0.58-1.58-1.38c-0.12-0.87,0.49-1.68,1.36-1.8
				l5.27-0.73c0.87-0.12,1.68,0.49,1.8,1.36c0.12,0.87-0.49,1.68-1.36,1.8l-5.27,0.73C1887.46,775.5,1887.38,775.5,1887.31,775.5z
				 M1897.85,774.03c-0.78,0-1.46-0.58-1.58-1.37c-0.12-0.87,0.49-1.68,1.36-1.8l5.27-0.75c0.86-0.13,1.68,0.48,1.8,1.35
				c0.12,0.87-0.48,1.68-1.35,1.8l-5.27,0.75C1898,774.03,1897.93,774.03,1897.85,774.03z M1908.39,772.53
				c-0.78,0-1.46-0.57-1.58-1.37c-0.13-0.87,0.48-1.68,1.35-1.8l5.26-0.76c0.88-0.12,1.68,0.48,1.81,1.35
				c0.13,0.87-0.48,1.68-1.35,1.81l-5.27,0.76C1908.54,772.53,1908.46,772.53,1908.39,772.53z M1789.32,771.5
				c-0.27,0-0.55-0.07-0.81-0.22c-1.48-0.87-3.01-1.79-4.59-2.74c-0.75-0.45-1-1.43-0.54-2.19c0.46-0.75,1.44-1,2.19-0.54
				c1.57,0.94,3.09,1.85,4.56,2.72c0.76,0.45,1.01,1.42,0.57,2.18C1790.4,771.22,1789.87,771.5,1789.32,771.5z M1918.92,771.01
				c-0.78,0-1.46-0.57-1.58-1.37c-0.13-0.87,0.48-1.68,1.35-1.81l5.26-0.77c0.88-0.13,1.68,0.47,1.81,1.35
				c0.13,0.87-0.47,1.68-1.35,1.81l-5.27,0.77C1919.07,771,1919,771.01,1918.92,771.01z M1929.45,769.47
				c-0.78,0-1.46-0.57-1.58-1.36c-0.13-0.87,0.47-1.68,1.35-1.81l5.26-0.78c0.87-0.13,1.68,0.47,1.81,1.34
				c0.13,0.87-0.47,1.68-1.34,1.81l-5.27,0.78C1929.61,769.46,1929.53,769.47,1929.45,769.47z M1940,767.91
				c-0.78,0-1.46-0.57-1.58-1.36c-0.13-0.87,0.47-1.68,1.34-1.81l5.27-0.79c0.88-0.13,1.68,0.47,1.81,1.34
				c0.13,0.87-0.47,1.68-1.34,1.81l-5.27,0.79C1940.16,767.9,1940.08,767.91,1940,767.91z M1950.52,766.33
				c-0.78,0-1.46-0.57-1.57-1.36c-0.13-0.87,0.47-1.68,1.34-1.81l5.26-0.79c0.87-0.13,1.68,0.47,1.81,1.34
				c0.13,0.87-0.47,1.68-1.34,1.81l-5.26,0.79C1950.68,766.32,1950.6,766.33,1950.52,766.33z M1780.2,766
				c-0.28,0-0.57-0.08-0.83-0.24c-1.48-0.91-2.99-1.85-4.53-2.81c-0.75-0.47-0.97-1.45-0.51-2.2c0.46-0.75,1.45-0.97,2.2-0.51
				c1.54,0.96,3.04,1.89,4.52,2.8c0.75,0.46,0.98,1.44,0.52,2.19C1781.26,765.73,1780.73,766,1780.2,766z M1961.05,764.74
				c-0.77,0-1.45-0.57-1.57-1.36c-0.13-0.87,0.47-1.68,1.34-1.82l5.26-0.8c0.87-0.13,1.68,0.47,1.82,1.34
				c0.13,0.87-0.47,1.68-1.34,1.82l-5.26,0.8C1961.21,764.73,1961.13,764.74,1961.05,764.74z M1971.57,763.14
				c-0.77,0-1.45-0.56-1.57-1.35c-0.13-0.87,0.46-1.68,1.33-1.82l5.26-0.81c0.88-0.13,1.68,0.46,1.82,1.33
				c0.13,0.87-0.46,1.68-1.33,1.82l-5.26,0.81C1971.73,763.13,1971.65,763.14,1971.57,763.14z M1982.09,761.52
				c-0.77,0-1.45-0.56-1.57-1.35c-0.13-0.87,0.46-1.68,1.33-1.82l5.26-0.81c0.87-0.13,1.68,0.46,1.82,1.33
				c0.13,0.87-0.46,1.68-1.33,1.82l-5.26,0.81C1982.25,761.52,1982.17,761.52,1982.09,761.52z M1771.16,760.35
				c-0.29,0-0.59-0.08-0.85-0.25c-1.48-0.93-2.98-1.89-4.5-2.86c-0.74-0.48-0.96-1.46-0.48-2.2c0.48-0.74,1.46-0.96,2.2-0.48
				c1.52,0.97,3.01,1.92,4.48,2.85c0.74,0.47,0.97,1.46,0.49,2.2C1772.21,760.09,1771.69,760.35,1771.16,760.35z M1992.61,759.9
				c-0.77,0-1.45-0.56-1.57-1.35c-0.13-0.87,0.46-1.68,1.33-1.82l5.26-0.82c0.88-0.14,1.69,0.46,1.82,1.33
				c0.14,0.87-0.46,1.69-1.33,1.82l-5.26,0.82C1992.77,759.89,1992.69,759.9,1992.61,759.9z M2003.13,758.26
				c-0.77,0-1.45-0.56-1.57-1.35c-0.14-0.87,0.46-1.69,1.33-1.82l5.26-0.82c0.87-0.13,1.69,0.46,1.82,1.33
				c0.14,0.87-0.46,1.69-1.33,1.82l-5.26,0.82C2003.29,758.25,2003.21,758.26,2003.13,758.26z M2013.65,756.61
				c-0.77,0-1.45-0.56-1.57-1.35c-0.14-0.87,0.46-1.69,1.33-1.82l5.26-0.83c0.88-0.14,1.69,0.46,1.82,1.33
				c0.14,0.87-0.46,1.69-1.33,1.82l-5.26,0.83C2013.82,756.61,2013.73,756.61,2013.65,756.61z M2024.17,754.96
				c-0.77,0-1.45-0.56-1.57-1.35c-0.14-0.87,0.46-1.69,1.33-1.82l5.26-0.83c0.86-0.14,1.69,0.45,1.82,1.33
				c0.14,0.87-0.46,1.69-1.33,1.82l-5.26,0.83C2024.34,754.95,2024.25,754.96,2024.17,754.96z M1762.2,754.62
				c-0.3,0-0.6-0.08-0.86-0.26c-1.47-0.95-2.96-1.92-4.47-2.9c-0.74-0.48-0.95-1.47-0.47-2.21c0.48-0.74,1.47-0.95,2.21-0.46
				c1.5,0.98,2.99,1.94,4.46,2.89c0.74,0.48,0.95,1.46,0.47,2.2C1763.23,754.36,1762.72,754.62,1762.2,754.62z M2034.7,753.29
				c-0.77,0-1.45-0.56-1.57-1.34c-0.14-0.87,0.45-1.69,1.32-1.83l5.26-0.84c0.87-0.15,1.69,0.45,1.83,1.32
				c0.14,0.87-0.45,1.69-1.32,1.83l-5.27,0.84C2034.86,753.28,2034.78,753.29,2034.7,753.29z M2045.23,751.61
				c-0.77,0-1.45-0.56-1.57-1.34c-0.14-0.87,0.45-1.69,1.32-1.83l5.27-0.84c0.86-0.14,1.69,0.45,1.83,1.32
				c0.14,0.87-0.45,1.69-1.32,1.83l-5.27,0.84C2045.4,751.6,2045.31,751.61,2045.23,751.61z M2055.78,749.92
				c-0.77,0-1.45-0.56-1.57-1.34c-0.14-0.87,0.45-1.69,1.32-1.83l5.32-0.86c0.87-0.14,1.69,0.45,1.83,1.32
				c0.14,0.87-0.45,1.69-1.32,1.83l-5.32,0.86C2055.95,749.91,2055.87,749.92,2055.78,749.92z M1753.28,748.81
				c-0.3,0-0.6-0.08-0.87-0.26c-1.47-0.96-2.95-1.94-4.45-2.93c-0.73-0.49-0.94-1.47-0.45-2.21c0.48-0.74,1.47-0.94,2.21-0.45
				c1.49,0.99,2.97,1.96,4.44,2.92c0.74,0.48,0.94,1.47,0.46,2.21C1754.3,748.55,1753.79,748.81,1753.28,748.81z M1744.39,742.94
				c-0.3,0-0.61-0.09-0.88-0.27c-1.47-0.98-2.95-1.96-4.43-2.95c-0.73-0.49-0.93-1.48-0.44-2.21c0.49-0.73,1.48-0.93,2.21-0.44
				c1.48,0.99,2.96,1.97,4.42,2.95c0.73,0.49,0.93,1.48,0.45,2.21C1745.42,742.69,1744.91,742.94,1744.39,742.94z M1735.54,737.03
				c-0.3,0-0.61-0.09-0.89-0.27l-4.42-2.97c-0.73-0.49-0.92-1.48-0.43-2.21c0.49-0.73,1.48-0.93,2.21-0.43l4.41,2.97
				c0.73,0.49,0.93,1.48,0.43,2.21C1736.56,736.78,1736.05,737.03,1735.54,737.03z M1726.72,731.08c-0.31,0-0.62-0.09-0.89-0.27
				l-4.41-2.99c-0.73-0.5-0.92-1.49-0.42-2.21c0.5-0.73,1.49-0.92,2.21-0.42l4.4,2.98c0.73,0.49,0.92,1.48,0.43,2.21
				C1727.73,730.83,1727.23,731.08,1726.72,731.08z M1717.91,725.1c-0.31,0-0.62-0.09-0.9-0.28l-4.39-3
				c-0.73-0.5-0.91-1.49-0.42-2.22c0.5-0.73,1.49-0.91,2.22-0.42l4.38,2.99c0.73,0.5,0.92,1.49,0.42,2.22
				C1718.92,724.85,1718.42,725.1,1717.91,725.1z M1709.14,719.1c-0.31,0-0.63-0.09-0.9-0.28l-4.4-3.02
				c-0.72-0.5-0.91-1.49-0.41-2.22c0.5-0.73,1.49-0.91,2.22-0.41l4.39,3.02c0.73,0.5,0.91,1.49,0.41,2.22
				C1710.14,718.85,1709.65,719.1,1709.14,719.1z M1700.36,713.06c-0.31,0-0.63-0.09-0.9-0.28l-4.38-3.02
				c-0.72-0.5-0.91-1.49-0.41-2.22c0.5-0.73,1.5-0.9,2.22-0.4l4.38,3.02c0.72,0.5,0.91,1.49,0.41,2.22
				C1701.36,712.81,1700.86,713.06,1700.36,713.06z M1691.6,707c-0.31,0-0.63-0.09-0.91-0.28l-4.37-3.03c-0.72-0.5-0.9-1.5-0.4-2.22
				c0.5-0.72,1.5-0.9,2.22-0.4l4.37,3.03c0.72,0.5,0.9,1.5,0.4,2.22C1692.61,706.76,1692.11,707,1691.6,707z M1682.86,700.93
				c-0.31,0-0.63-0.09-0.91-0.29l-4.37-3.04c-0.72-0.5-0.9-1.5-0.4-2.22c0.5-0.72,1.5-0.9,2.22-0.4l4.37,3.04
				c0.72,0.5,0.9,1.5,0.4,2.22C1683.86,700.69,1683.37,700.93,1682.86,700.93z M1674.13,694.84c-0.32,0-0.63-0.09-0.91-0.29
				l-4.33-3.03c-0.72-0.5-0.91-1.51-0.41-2.23c0.51-0.72,1.48-0.91,2.21-0.4l4.36,3.05c0.72,0.5,0.9,1.5,0.39,2.22
				C1675.13,694.61,1674.64,694.84,1674.13,694.84z M1665.41,688.74c-0.32,0-0.64-0.09-0.91-0.29l-4.36-3.06
				c-0.72-0.51-0.89-1.5-0.39-2.22c0.51-0.72,1.5-0.89,2.22-0.39l4.36,3.06c0.72,0.51,0.9,1.5,0.39,2.22
				C1666.41,688.5,1665.91,688.74,1665.41,688.74z M1656.7,682.62c-0.32,0-0.64-0.09-0.92-0.29l-4.35-3.06
				c-0.72-0.51-0.89-1.5-0.39-2.22c0.51-0.72,1.5-0.89,2.22-0.39l4.35,3.06c0.72,0.51,0.89,1.5,0.39,2.22
				C1657.7,682.39,1657.2,682.62,1656.7,682.62z M1648,676.49c-0.32,0-0.64-0.09-0.92-0.29l-4.35-3.07
				c-0.72-0.51-0.89-1.5-0.38-2.22c0.51-0.72,1.5-0.89,2.22-0.38l4.35,3.07c0.72,0.51,0.89,1.5,0.38,2.22
				C1648.99,676.26,1648.5,676.49,1648,676.49z M1639.3,670.35c-0.32,0-0.64-0.09-0.92-0.29l-4.35-3.07
				c-0.72-0.51-0.89-1.5-0.38-2.22c0.51-0.72,1.5-0.89,2.22-0.38l4.35,3.07c0.72,0.51,0.89,1.5,0.38,2.22
				C1640.29,670.12,1639.8,670.35,1639.3,670.35z M1630.6,664.21c-0.32,0-0.64-0.09-0.92-0.29l-4.35-3.08
				c-0.72-0.51-0.89-1.5-0.38-2.22c0.51-0.72,1.51-0.89,2.22-0.38l4.35,3.08c0.72,0.51,0.89,1.5,0.38,2.22
				C1631.59,663.97,1631.1,664.21,1630.6,664.21z M1621.9,658.05c-0.32,0-0.64-0.1-0.92-0.29l-4.35-3.08
				c-0.72-0.51-0.89-1.5-0.38-2.22c0.51-0.72,1.51-0.89,2.22-0.38l4.35,3.08c0.72,0.51,0.89,1.5,0.38,2.22
				C1622.89,657.81,1622.4,658.05,1621.9,658.05z M1613.2,651.89c-0.32,0-0.64-0.09-0.92-0.29l-4.36-3.08
				c-0.72-0.51-0.89-1.5-0.39-2.22c0.51-0.72,1.5-0.89,2.22-0.39l4.36,3.08c0.72,0.51,0.89,1.5,0.38,2.22
				C1614.19,651.66,1613.7,651.89,1613.2,651.89z M1604.46,645.74c-0.32,0-0.63-0.09-0.91-0.29c-2-1.39-3.48-2.42-4.39-3.02
				c-0.73-0.49-0.93-1.48-0.45-2.21c0.49-0.73,1.48-0.93,2.21-0.45c0.92,0.61,2.43,1.65,4.45,3.06c0.72,0.5,0.9,1.5,0.39,2.22
				C1605.46,645.5,1604.96,645.74,1604.46,645.74z"/>
			<path class="st21" d="M1547.61,585.27c0,0,2.99,95.23,1.49,96.72c-1.49,1.49-18.3-10.83-18.3-10.83s-1.96-75.94-0.37-80.66
				C1532.02,585.78,1547.61,585.27,1547.61,585.27z"/>
			<path class="st21" d="M1735.41,666.88c0,0-72.95-60.07-84.19-62.98c0,0,73.67,16.65,130.7,32.88
				c57.02,16.23,298.44,12.9,298.44,12.9v24.14L1735.41,666.88"/>
		</g>
	</g>
	<g>
		<defs>
			<path id="XMLID_263_" d="M2082.14,721.89c0,0,5.8-9.26,16.65-10.77c10.84-1.51,14.37,0,14.37,0s29.12,78.9,23.83,80.57
				c-5.28,1.67-17.23,1.95-20.85-1.39s-31.03-41.48-31.03-41.48S2086.89,728.19,2082.14,721.89z"/>
		</defs>
		<use xlink:href="#XMLID_263_"  style="overflow:visible;fill:#1B3D9E;"/>
		<clipPath id="XMLID_11_">
			<use xlink:href="#XMLID_263_"  style="overflow:visible;"/>
		</clipPath>
		<path class="st22" d="M2090.32,759.32c0,0,7.74-8.82,11.46-8.62c2.31,0.12,3.3,1.71,3.72,2.9c0.26,0.74,0.08,1.57-0.44,2.16
			c-2.17,2.48-8.47,9.52-9.85,9.18C2093.56,764.52,2090.32,759.32,2090.32,759.32z"/>
		<path class="st22" d="M2098.11,770.75c0,0,7.74-8.82,11.46-8.62c2.31,0.12,3.3,1.71,3.72,2.9c0.26,0.74,0.08,1.57-0.43,2.16
			c-2.17,2.48-8.47,9.52-9.85,9.18C2101.34,775.95,2098.11,770.75,2098.11,770.75z"/>
		<path class="st22" d="M2105.27,709.18c0,0,27.32,81.76,27.13,85.18c0,0,9.11-0.57,9.11-2.85s-22.39-81.95-25.23-82.33
			C2113.42,708.8,2105.27,709.18,2105.27,709.18z"/>
	</g>
	<g>
		<path class="st16" d="M2074.66,636.27c0,0,33.54,4.66,34.17,6.34c0.63,1.68,0.75,24.31,0.75,24.31l-34.92,0.06V636.27z"/>
		<g>
			<defs>
				<path id="XMLID_265_" d="M2107.44,641.94c0,0,3.95-9.92,15.48-10.55c11.54-0.63,38.53,13.73,40.93,14.74
					c2.41,1.01,34.91,9.76,35.48,10.05c6.95,3.52,0.76,11.82,0.76,11.82l-90.53-1.07L2107.44,641.94z"/>
			</defs>
			<use xlink:href="#XMLID_265_"  style="overflow:visible;fill:#1B3D9E;"/>
			<clipPath id="XMLID_12_">
				<use xlink:href="#XMLID_265_"  style="overflow:visible;"/>
			</clipPath>
			<path class="st23" d="M2116.68,631.36c1.1,1.02,40.02,19.52,45.8,20.26c5.78,0.75,41.39,10.33,41.39,10.33s1.92-4.87-1.24-6.7
				c-3.17-1.83-37.56-10.04-40.3-11.57c-2.74-1.52-35.91-14.91-38.65-14.46C2120.94,629.7,2116.68,631.36,2116.68,631.36z"/>
			<path class="st23" d="M2126.51,668.76c0.71-2.57,3.26-14.97,5.19-15.4c1.94-0.43,6.64,0.86,6.5,1.57
				c-0.14,0.71-1.14,14.26-4.28,14.26C2130.79,669.19,2126.51,668.76,2126.51,668.76z"/>
			<path class="st23" d="M2144.95,672.32c0.71-2.57,3.26-14.97,5.19-15.4c1.94-0.43,6.64,0.86,6.5,1.57
				c-0.14,0.71-1.14,14.26-4.28,14.26C2149.22,672.75,2144.95,672.32,2144.95,672.32z"/>
		</g>
	</g>
</g>
</svg>
